<?xml version="1.0" standalone="no"?>
<!DOCTYPE svg PUBLIC "-//W3C//DTD SVG 20010904//EN"
 "http://www.w3.org/TR/2001/REC-SVG-20010904/DTD/svg10.dtd">
<svg version="1.0" xmlns="http://www.w3.org/2000/svg"
 width="360.000000pt" height="640.000000pt" viewBox="0 0 360.000000 640.000000"
 preserveAspectRatio="xMidYMid meet">
<metadata>
Created by potrace 1.16, written by Peter Selinger 2001-2019
</metadata>
<g transform="translate(0.000000,640.000000) scale(0.100000,-0.100000)"
fill="#000000" stroke="none">
<path d="M3555 4583 c0 -1920 1 -1866 -44 -1907 -16 -15 -23 -15 -49 -4 -55
23 -238 194 -287 268 -83 125 -78 77 -85 870 -5 663 -7 708 -25 755 -19 50
-19 50 -26 20 -4 -16 -7 -564 -8 -1217 l-1 -1188 -1230 0 -1230 0 0 1230 0
1230 1178 1 c647 0 1195 3 1217 7 l40 7 -30 13 c-68 28 -171 32 -887 32 -646
0 -744 2 -800 16 -128 33 -225 89 -349 201 -41 37 -111 100 -154 138 -44 39
-131 117 -195 174 -63 58 -138 125 -166 150 -171 155 -371 329 -395 344 l-29
19 0 -2871 0 -2871 1800 0 1800 0 0 3200 0 3200 -22 0 -23 0 0 -1817z m-449
-2569 c20 -2 50 -12 68 -22 42 -23 122 -105 131 -134 5 -12 16 -30 26 -39 10
-9 23 -28 28 -43 10 -23 9 -26 -7 -18 -15 7 -26 8 -49 3 -5 -1 6 -8 22 -16 21
-9 24 -14 12 -14 -30 -2 -57 18 -51 37 5 16 5 16 -5 0 -6 -9 -17 -15 -24 -14
-6 2 -30 6 -52 11 -22 4 -52 14 -67 21 -14 8 -48 21 -75 30 -26 9 -50 19 -53
23 -3 3 -31 19 -62 35 -32 16 -58 32 -58 37 0 5 -4 9 -9 9 -16 0 -80 44 -86
59 -3 8 -2 18 3 23 9 9 249 27 264 20 4 -1 24 -5 44 -8z m-2332 -283 c9 -13
-9 -97 -19 -91 -5 3 -9 18 -9 34 -1 16 -9 33 -18 39 -23 15 -65 -5 -80 -38
-10 -21 -8 -29 8 -49 10 -14 32 -41 48 -61 51 -63 32 -130 -46 -171 -63 -33
-163 -1 -156 50 5 33 34 32 46 -3 6 -16 20 -32 32 -36 53 -17 120 48 101 97
-5 13 -21 34 -36 48 -15 14 -34 40 -41 58 -12 28 -12 36 1 61 24 48 62 71 116
71 26 0 50 -4 53 -9z m1206 3 c0 -3 -7 -31 -16 -61 -9 -30 -14 -57 -11 -59 2
-3 32 17 65 43 35 28 54 49 46 51 -8 2 -14 10 -14 18 0 10 14 14 55 14 60 0
70 -10 29 -29 -15 -6 -52 -33 -83 -59 -31 -25 -57 -47 -59 -48 -5 -3 55 -168
72 -203 23 -44 70 -56 81 -21 7 21 30 27 39 11 17 -28 -29 -60 -78 -55 -54 6
-87 51 -137 187 -11 31 -24 57 -27 57 -4 0 -14 -31 -23 -70 -15 -67 -13 -75
14 -71 4 0 7 -5 7 -12 0 -9 -20 -13 -70 -13 -38 -1 -70 3 -70 7 0 5 6 9 13 9
8 0 21 8 29 18 16 18 83 251 74 259 -8 8 -64 -8 -76 -22 -6 -7 -10 -26 -8 -42
2 -22 -1 -28 -17 -28 -53 0 -4 96 58 114 37 11 107 14 107 5z m-366 -69 c-6
-33 -5 -35 21 -35 35 0 28 -23 -10 -30 -25 -4 -31 -12 -42 -55 -7 -27 -13 -61
-13 -73 l0 -24 36 21 c20 12 39 19 42 17 16 -17 -88 -82 -114 -72 -18 7 -18
56 1 126 8 30 15 56 15 58 0 1 -9 2 -20 2 -11 0 -20 7 -20 15 0 9 9 15 25 15
19 0 26 7 31 28 7 28 20 42 42 42 9 0 11 -10 6 -35z m-267 -22 c3 -7 -14 -21
-37 -33 -49 -25 -73 -61 -89 -135 -11 -48 -15 -55 -37 -55 -27 0 -27 -5 6 118
17 62 13 85 -10 57 -14 -17 -30 -20 -30 -5 0 5 18 22 40 36 46 30 75 27 65 -8
-6 -20 -2 -18 24 10 30 33 60 39 68 15z m1791 -5 c2 -11 -8 -20 -32 -28 -42
-14 -74 -60 -90 -133 -9 -42 -16 -53 -34 -55 -27 -4 -27 2 -2 98 25 94 25 97
0 75 -11 -10 -23 -15 -26 -12 -17 16 66 74 87 61 6 -3 8 -16 5 -27 -4 -17 1
-15 27 11 34 34 60 38 65 10z m-2195 -9 c21 -33 -1 -68 -58 -96 -42 -21 -55
-32 -55 -49 0 -34 17 -38 56 -15 42 25 44 25 44 6 0 -8 -20 -26 -43 -40 -73
-42 -107 -30 -107 39 0 108 121 223 163 155z m197 6 c18 -22 -5 -48 -30 -35
-10 6 -28 10 -40 10 -26 0 -50 -52 -50 -110 0 -48 18 -59 58 -39 15 7 30 15
35 17 4 2 7 -3 7 -10 0 -18 -70 -58 -103 -58 -34 0 -49 22 -49 69 2 105 123
215 172 156z m340 -5 c17 -31 -7 -68 -65 -99 -33 -18 -51 -35 -53 -49 -5 -32
22 -37 63 -12 48 30 59 15 15 -21 -102 -86 -167 -17 -104 110 40 79 119 118
144 71z m834 -2 c20 -32 -5 -71 -62 -98 -39 -19 -52 -30 -52 -47 0 -33 16 -36
60 -12 22 12 43 20 46 16 10 -10 -16 -37 -57 -58 -69 -35 -99 -21 -99 46 1
110 120 222 164 153z m190 -1 c17 -27 -11 -68 -67 -97 -38 -21 -47 -30 -47
-52 0 -33 14 -35 55 -8 60 40 63 13 3 -30 -75 -55 -127 -31 -114 52 14 85 77
161 129 156 17 -2 35 -11 41 -21z m119 -4 l-3 -22 37 24 c20 14 44 25 54 25
27 0 42 -35 34 -83 -9 -53 -25 -83 -65 -125 -27 -28 -38 -33 -66 -30 -33 4
-34 2 -47 -42 -15 -48 -11 -60 19 -64 10 -2 20 -8 22 -14 2 -8 -18 -12 -67
-12 -73 0 -85 7 -52 31 14 10 29 53 53 152 19 76 32 140 29 142 -2 3 -13 -2
-23 -12 -10 -9 -21 -13 -26 -9 -4 4 8 21 26 37 40 36 78 36 75 2z m295 15 c32
-32 -4 -87 -77 -117 -22 -10 -31 -20 -31 -37 0 -34 16 -38 57 -14 47 28 56 16
16 -21 -64 -56 -116 -50 -121 16 -9 103 103 226 156 173z"/>
<path d="M620 3410 l0 -1180 1180 0 1180 0 0 1180 0 1180 -1180 0 -1180 0 0
-1180z m958 846 c32 -17 165 -152 181 -184 7 -12 11 -51 10 -85 -1 -34 -1 -98
0 -142 2 -52 -3 -92 -12 -115 -13 -31 -13 -38 0 -64 12 -23 14 -48 10 -103 -5
-66 -3 -76 17 -99 l22 -26 38 46 c100 122 296 141 413 41 44 -37 89 -119 98
-177 4 -28 14 -42 41 -59 58 -35 64 -63 64 -278 0 -311 8 -304 -340 -311
l-245 -5 -62 -46 c-79 -59 -164 -89 -273 -96 -317 -20 -560 248 -512 565 17
113 64 201 151 286 l71 68 0 277 c1 314 -1 308 85 407 90 103 172 137 243 100z"/>
<path d="M1423 4093 l-73 -78 0 -311 0 -311 -25 -11 c-46 -21 -126 -105 -155
-163 -119 -236 16 -508 277 -559 163 -32 344 62 420 219 25 50 27 67 28 161 0
97 -2 110 -29 163 -39 76 -85 128 -145 166 -32 19 -51 38 -53 53 -2 17 -12 25
-40 32 -34 9 -38 13 -38 42 0 30 4 34 40 44 37 10 40 14 40 45 0 32 -3 35 -40
45 l-41 11 3 56 c3 54 4 57 38 68 31 10 35 16 35 46 0 30 -3 34 -37 42 -35 8
-38 12 -38 43 0 29 4 35 28 40 50 11 52 13 52 51 0 34 -8 46 -73 111 -40 39
-79 72 -87 72 -8 0 -47 -35 -87 -77z m146 -1139 c12 -15 21 -38 21 -51 0 -33
-42 -73 -77 -73 -36 0 -48 9 -67 44 -40 78 69 148 123 80z"/>
<path d="M2000 3474 c-45 -20 -68 -41 -91 -86 -24 -48 -24 -98 0 -140 63 -106
66 -283 7 -396 -9 -18 -14 -37 -11 -42 8 -14 411 -13 436 0 18 10 19 23 19
193 0 129 -4 187 -12 195 -7 7 -31 12 -55 12 l-43 0 0 75 c0 46 -6 87 -14 103
-44 84 -151 123 -236 86z m144 -75 c39 -31 56 -71 56 -134 l0 -55 -130 0 -130
0 1 48 c0 68 19 113 58 139 44 30 108 31 145 2z"/>
</g>
</svg>
